<svg xmlns="http://www.w3.org/2000/svg" viewBox="0 0 512 512">
  <rect width="512" height="512" rx="64" fill="#070707"/>
  <path fill="#f2f2f2" d="M359.244 224.004h-59.988c-6.217 0-11.258-5.043-11.258-11.258v-59.992c0-6.215-5.039-11.254-11.256-11.254h-41.486c-6.217 0-11.258 5.039-11.258 11.254v59.992c0 6.215-5.039 11.258-11.256 11.258h-59.988c-6.219 0-11.258 5.039-11.258 11.258v41.484c0 6.215 5.039 11.258 11.258 11.258h59.988c6.217 0 11.256 5.039 11.256 11.258v59.984c0 6.219 5.041 11.258 11.258 11.258h41.486c6.217 0 11.256-5.039 11.256-11.258v-59.984c0-6.219 5.041-11.258 11.258-11.258h59.988c6.217 0 11.258-5.043 11.258-11.258v-41.484c0-6.219-5.041-11.258-11.258-11.258z"/>
  <path fill="#f2f2f2" d="M256 32C132.288 32 32 132.291 32 256s100.288 224 224 224c123.708 0 224-100.288 224-224S379.708 32 256 32zm0 384c-88.226 0-160-71.774-160-160 0-88.222 71.774-160 160-160 88.222 0 160 71.778 160 160 0 88.226-71.778 160-160 160z"/>
</svg>
